# xmcd
#
# Track frame offsets:
# 150
# 17722
# 32564
# 48993
# 66891
# 85544
# 105812
# 125648
# 141263
# 160619
# 177350
# 193003
# 212290
# 227536
# 245168
# 258801
# 275533
# 295430
# 313632
# 332630
#
# Disc length: 4674 seconds
#
#
# Revision: 2
# Processed by: cddbd v1.5.2PL0 Copyright (c) Steve Scherf et al.
# Submitted via: FreeRIP 2.96 
#
DISCID=12124014
DTITLE=Romanticas - As 20 mais Romanticas
DYEAR=1900
DGENRE=Rock
TTITLE0=Nothing's gonna change my love for you
TTITLE1=Stuck you
TTITLE2=Lost in your eyes
TTITLE3=Skyline pigeon
TTITLE4=Lover why
TTITLE5=Forever by your side
TTITLE6=Must have been love
TTITLE7=Broken wings
TTITLE8=This the end
TTITLE9=Unchained melody
TTITLE10=If you don't know, me by now
TTITLE11=Take my breath a way
TTITLE12=Yes
TTITLE13=Love hurst
TTITLE14=Give me your heart tonight
TTITLE15=Coming around again
TTITLE16=I just called to say a love you
TTITLE17=Say you, say me
TTITLE18=Immortality
TTITLE19=Heaven
EXTD=
EXTT0=
EXTT1=
EXTT2=
EXTT3=
EXTT4=
EXTT5=
EXTT6=
EXTT7=
EXTT8=
EXTT9=
EXTT10=
EXTT11=
EXTT12=
EXTT13=
EXTT14=
EXTT15=
EXTT16=
EXTT17=
EXTT18=
EXTT19=
PLAYORDER=
